# xmcd
#
# Track frame offsets:
# 150
# 11762
# 31254
# 46916
# 60127
# 74955
# 85782
# 98507
# 113745
# 130079
# 144267
# 161276
# 173276
# 188189
#
# Disc length: 2712 seconds
#
#
# Revision: 1
# Processed by: cddbd v1.5.1PL0 Copyright (c) Steve Scherf et al.
# Submitted via: FreeRIP 2.70 
#
DISCID=a40a960e
DTITLE=Tião Carreiro e Paraíso - Tá do Jeito Que Eu Queria
DYEAR=1978
DGENRE=Sertanejo Raiz
TTITLE0=Canário Malandrinho
TTITLE1=Apaixonados
TTITLE2=Tá do Jeito que Eu Queria
TTITLE3=Mal de Amor
TTITLE4=Recanto dos Passarinhos
TTITLE5=Minha terra, Minha infância
TTITLE6=Muito Obrigado Meu Deus
TTITLE7=Cerne de Aroeira
TTITLE8=Lançador de Cachorro
TTITLE9=A Grande Cilada
TTITLE10=O Castigo Vem a Cavalo
TTITLE11=Viola Divina
TTITLE12=Pedaço de Pão
TTITLE13=O Tesouro é do Patrão
EXTD=
EXTT0=
EXTT1=
EXTT2=
EXTT3=
EXTT4=
EXTT5=
EXTT6=
EXTT7=
EXTT8=
EXTT9=
EXTT10=
EXTT11=
EXTT12=
EXTT13=
PLAYORDER=
